# xmcd
# 
# Track frame offsets:
#     150
#     13545
#     26529
#     40516
#     57262
#     69975
#     87048
#     102051
#     116145
#     129789
#     146968
#     168652
#     179719
#     193003
#     207102
# 
# Disc length: 2982
# 
# Revision: 1
# Processed by: cddbd v1.5.2PL0 Copyright (c) Steve Scherf et al.
# Submitted via: fre:ac v1.1beta1pre5
# 
DISCID=ca0ba40f
DTITLE=Various Artist - The Ultimate Country Collection - CD09
DYEAR=2009
DGENRE=Country
TTITLE0=Waylon Jennings and Willie Nelson - Good Hearted Woman
TTITLE1=Lonestar - No News
TTITLE2=Miranda Lambert - Kerosene
TTITLE3=Alabama - Touch Me When We're Dancing
TTITLE4=Clint Black - Killin' Time
TTITLE5=Kris Kristofferson - Loving Her Was Easier (Than Anything I'll Ever Do Again)
TTITLE6=Lorrie Morgan - I Don't Know My Own Strength
TTITLE7=Ricky Van Shelton - I'll Leave This World Loving You
TTITLE8=Merle Haggard - Big City
TTITLE9=Travis Tritt - Strong Enough To Be Your Man
TTITLE10=Sara Evans - I Could Not Ask For More
TTITLE11=Marty Robbins - Singing The Blues
TTITLE12=Tammy Wynette - D-I-V-O-R-C-E
TTITLE13=The Carter Family - Can The Circle Be Unbroken (Bye and Bye)
TTITLE14=David Allan Coe - Mona Lisa Lost Her Smile
EXTD=
EXTT0=
EXTT1=
EXTT2=
EXTT3=
EXTT4=
EXTT5=
EXTT6=
EXTT7=
EXTT8=
EXTT9=
EXTT10=
EXTT11=
EXTT12=
EXTT13=
EXTT14=
PLAYORDER=
